<svg height="512" viewBox="0 0 58 60" width="512" xmlns="http://www.w3.org/2000/svg"><g id="Page-1" fill="none" fill-rule="evenodd"><g id="033---Cake" fill="rgb(0,0,0)" fill-rule="nonzero"><path id="Shape" d="m11 17.163c-11 1.616-11 4.03-11 4.837v32c0 5.932 27.816 6 29 6s29-.068 29-6v-32c0-.807-.005-3.221-11-4.837v-3.163c0-1.6568542-1.3431458-3-3-3s-3 1.3431458-3 3v2.485c-2.9-.244-5.913-.393-9-.445v-1.04c0-1.6568542-1.3431458-3-3-3s-3 1.3431458-3 3v1.04c-3.087.052-6.1.2-9 .445v-2.485c0-1.6568542-1.3431458-3-3-3s-3 1.3431458-3 3zm45 25.822c-.38 1.402-9.985 4.015-27 4.015-16.995 0-26.6-2.607-27-4.01v-2.529c8.578 4.684 45.424 4.685 54 0zm0-5c-.381 1.402-9.986 4.015-27 4.015-16.995 0-26.6-2.607-27-4.01v-6.931c2.639.718 3.645-.578 4.911-.962 1.089-.329 1.431.116 2.089 1.03.50692512.9033766 1.3506564 1.5695182 2.347 1.853 1.2118653.1571152 2.4160521-.3408539 3.163-1.308 1.119-1.082 1.541-1.405 3.352.61.131.146.259.289.38.417 1.2611664 1.6305425 3.6025404 1.9361722 5.24.684 1.124-.833 1.845-1.761 2.758-1.454.9994966.5135389 1.6234227 1.5473519 1.612 2.671.09 1.543 0 3.684 1.267 4.807.4543197.3981487 1.0410288.6121459 1.645.6 3.558 0 2.7-5.2 3.4-6.4.198874-.3859726.555239-.6668334.977-.77.974-.187 1.494.792 2.575 1.445.9704066.6188495 2.2157419.6019516 3.169-.043 1.12-.708 1.816-2.03 2.676-2.131 1.4-.156 2.907 2.621 5.622 2.236 3.022-.437 4.025-3.834 6.4-3.205.142.039.277.1.415.151zm0-13.524v4.739c-2.245-.545-3.661.721-4.8 1.747-2.144 1.934-2.819 1.785-4.666.381-4.933-3.734-5.849 2.41-7.787 1.251-.372-.224-.8-.656-1.235-.985-.7715734-.6425492-1.7920073-.9023931-2.7769248-.7071177-.9849175.1952753-1.8290215.8247931-2.2970752 1.7131177-.881 1.495-.452 5.3-1.585 5.4-.1435285.0323373-.2939087-.0047021-.406-.1-.591-.524-.553-2.624-.6-3.423-.0136393-1.9440132-1.1812212-3.6940105-2.971-4.453-3.572-1.193-4.567 4.111-7.169 1.3-1.289-1.37-2.439-2.866-4.455-2.454-1.782.376-2.536 2.333-3.507 2.139-.915-.185-1.363-2.129-3.022-2.8-.77296017-.2830763-1.6191139-.295416-2.4-.035-1.644.5-2.261 1.663-4.329.762v-4.475c8.584 4.684 45.428 4.684 54.006 0zm-27 33.539c-17.018 0-26.624-2.614-27-4v-8.539c8.578 4.684 45.425 4.684 54 0v8.524c-.376 1.401-9.982 4.015-27 4.015zm14-44c0-.5522847.4477153-1 1-1s1 .4477153 1 1v6c0 .5522847-.4477153 1-1 1s-1-.4477153-1-1zm-15 1c0-.5522847.4477153-1 1-1s1 .4477153 1 1v6c0 .5522847-.4477153 1-1 1s-1-.4477153-1-1zm-2 3.04v2.96c0 1.6568542 1.3431458 3 3 3s3-1.3431458 3-3v-2.96c3.09.053 6.107.2 9 .451v1.509c0 1.6568542 1.3431458 3 3 3s3-1.3431458 3-3v-.814c6.969 1.057 8.891 2.415 9 2.8-.548 2.025-15.273 4.6-33.027 3.9-13.193-.518-20.581-2.658-20.967-3.886.15-.43 2.1-1.769 8.994-2.814v.814c0 1.6568542 1.3431458 3 3 3s3-1.3431458 3-3v-1.509c2.893-.247 5.91-.398 9-.451zm-13-4.04c0-.5522847.4477153-1 1-1s1 .4477153 1 1v6c0 .5522847-.4477153 1-1 1s-1-.4477153-1-1z"/><path id="Shape" d="m15.063 10c.123 0 .247-.005.37-.017 1.0890425-.09816687 2.0910729-.63583293 2.775-1.489 1.215-1.5 1.7-6.433 1.788-7.407.0284587-.32783322-.1061889-.64868422-.3600781-.85802795-.2538892-.20934373-.5945193-.28038189-.9109219-.18997205-.92.263-5.569 1.653-6.791 3.16-1.4195399 1.76863927-1.189113 4.34262155.522 5.831.7244667.62565973 1.6497633.96993966 2.607.97zm-1.575-5.541c.438-.542 2.383-1.387 4.352-2.049-.278 2.128-.741 4.276-1.186 4.824-.3445956.43202904-.8498645.70559609-1.4.758-.5448108.05062765-1.0866599-.12348653-1.5-.482-.8936772-.78051263-1.0111232-2.12760933-.266-3.051z"/><path id="Shape" d="m45.063 10c.123 0 .247-.005.37-.017 1.0890425-.09816687 2.0910729-.63583293 2.775-1.489 1.215-1.5 1.7-6.433 1.788-7.407.0284587-.32783322-.1061889-.64868422-.3600781-.85802795-.2538892-.20934373-.5945193-.28038189-.9109219-.18997205-.92.263-5.569 1.653-6.791 3.16-1.4195399 1.76863927-1.189113 4.34262155.522 5.831.7244667.62565973 1.6497633.96993966 2.607.97zm-1.575-5.541c.438-.542 2.383-1.387 4.352-2.049-.278 2.128-.741 4.276-1.186 4.824-.3445956.43202904-.8498645.70559609-1.4.758-.5432131.04993867-1.0832533-.12417463-1.495-.482-.8952303-.77908978-1.0148956-2.1263176-.271-3.051z"/><path id="Shape" d="m30.063 11c.123 0 .247-.005.37-.017 1.0890425-.0981669 2.0910729-.6358329 2.775-1.489 1.215-1.5 1.7-6.433 1.788-7.407.0284587-.32783322-.1061889-.64868422-.3600781-.85802795s-.5945193-.28038189-.9109219-.18997205c-.92.263-5.569 1.653-6.791 3.16-1.4195399 1.76863927-1.189113 4.34262155.522 5.831.7244667.6256597 1.6497633.9699397 2.607.97zm-1.575-5.541c.438-.542 2.383-1.387 4.352-2.049-.278 2.128-.741 4.276-1.186 4.824-.3445956.43202904-.8498645.70559609-1.4.758-.5448885.0513392-1.0870112-.12286289-1.5-.482-.8936772-.78051263-1.0111232-2.12760933-.266-3.051z"/></g></g></svg>